<svg xmlns="http://www.w3.org/2000/svg" version="1.1" xmlns:xlink="http://www.w3.org/1999/xlink" xmlns:svgjs="http://svgjs.dev/svgjs" viewBox="0 0 8.562013446720838 2.917725083974834"><g transform="matrix(0.753083756312343,0,0,0.753083756312343,1.417266958257919,1.1041600927643036)"><g transform="matrix(1,0,0,1,0,0)" clip-path="url(#SvgjsClipPath13366)"><g clip-path="url(#SvgjsClipPath133647aa9cc13-8718-423c-baf4-62b6760c174c)"><path d=" M 5.685289983921645 0.6379586014272162 C 5.685289983921645 0.6379586014272162 5.681353828288785 0.6172937843546923 5.673700192335997 0.579134942247228 C 5.668780117930613 0.5555314877960954 5.665636959083855 0.5315923128586059 5.6642971538797156 0.5075187772604391 C 5.660559287720174 0.4752253425056481 5.659425808129144 0.44268350908572907 5.660907686529196 0.41020826300358093 C 5.662360802523692 0.3218233154207869 5.678051556829336 0.23425044668434747 5.707376190528262 0.1508593418605758 C 5.745799856403338 0.04235717913235815 5.804540639503541 -0.0578324066986966 5.880457700717708 -0.14435233060404223 C 5.972102690216606 -0.2469067057361769 6.08645007866246 -0.3266203894300975 6.214374903572132 -0.37713220122522195 C 6.248925603016144 -0.3895966940626178 6.283366964803682 -0.40107714799179794 6.321088456285273 -0.4108081994174837 C 6.357738151367935 -0.41985988463455587 6.394963058359959 -0.4263989016625953 6.432503528226555 -0.43037963992532347 C 6.511325863040851 -0.4397742948279983 6.591073857811607 -0.4381182450981028 6.669438229793535 -0.4254594453842461 C 6.835697106653221 -0.3997975186417089 6.990543223441195 -0.32519122835054975 7.114223816306906 -0.21115763870622073 C 7.177555838826047 -0.1525621208222981 7.232521747075446 -0.08552873070824213 7.277574275070662 -0.01194442862083317 C 7.321316237701404 0.0634549134154444 7.354813373254993 0.14434810575121704 7.37718088011336 0.22859841560960192 C 7.39609076624893 0.3137434363066204 7.403227834949134 0.40108055534931353 7.398392385468222 0.48816601206553767 C 7.3922616383404085 0.5743012453661375 7.374156104046207 0.6591617374035911 7.344598258485777 0.7402986478816204 C 7.314191174131069 0.8194033880045103 7.2732186539402015 0.8940292798063664 7.222796109180004 0.9621447528559625 C 7.171975626883644 1.0270699589009027 7.112741428366572 1.0849437195873541 7.046653144609447 1.1342422241371932 C 6.806989991193111 1.310775982515345 6.493647574109897 1.3523624415568047 6.216233643732101 1.2444545818573207 C 6.109264713772105 1.2020828177909948 6.011313121187319 1.1397870890221098 5.927582230655581 1.0608766566469092 C 5.863445032530812 1.0001088635991588 5.809409645156604 0.929501147720155 5.767511901585871 0.8517137198228993 C 5.751434946685229 0.823327584294914 5.737545269918889 0.7937571934949926 5.725963592127889 0.7632595557399814 C 5.716376933704041 0.7412507256098694 5.708339279121393 0.718599153604221 5.701909307704845 0.6954702087295864 C 5.691194217370938 0.6577487172479927 5.685289983921645 0.6379586014272162 5.685289983921645 0.6379586014272162 Z M 5.685289983921645 0.6379586014272162 C 5.685289983921645 0.6379586014272162 5.691631567996812 0.6578580549044611 5.702784008956585 0.6953608710731157 C 5.70953040809451 0.7184037160465006 5.717972451352331 0.7409158314006953 5.728041007600777 0.7627128674576357 C 5.740156220862877 0.7928843989934594 5.75448192667589 0.8221205333057348 5.770901368936385 0.85018299263234 C 5.870234461769965 1.0270693355956286 6.0306714290318455 1.1616544532744837 6.2221378771813916 1.2287099593258723 C 6.348246033087141 1.2712460993149057 6.482559095849963 1.2836776401114638 6.614332050933467 1.265010061273375 C 6.7603451533418575 1.243230823037095 6.898035991352542 1.1833422854416513 7.013523834699523 1.0913818628015877 C 7.199138596170055 0.9428410107118771 7.312446606209065 0.7220734026688805 7.324917480321471 0.4846672070585476 C 7.331527244343528 0.3242899135663465 7.293244264441953 0.16525082792183388 7.214377109631941 0.02544904989135266 C 7.1738711940142545 -0.04285325530316453 7.124331363564 -0.10537568423073207 7.06709928636903 -0.16042496610489365 C 6.952891525687484 -0.26671833669142675 6.811911690344661 -0.33992958094318404 6.659269827741974 -0.372212006684146 C 6.549875897028649 -0.39361558400474106 6.437370659356107 -0.39361558400474067 6.327976728642781 -0.37221200668414567 C 6.294300730450523 -0.3648863837007643 6.258656654441834 -0.3549366569621414 6.225746019844849 -0.3445495795976456 C 6.09965621455237 -0.3008158013296174 5.985533683097428 -0.22821619880627958 5.8924848429292265 -0.13254386370545673 C 5.8140960837822435 -0.050509286537019416 5.7536273307063714 0.04693327922626056 5.714920488824577 0.1535927832722931 C 5.684460784383882 0.23589070474882856 5.667298620797753 0.322513496010419 5.664078478566783 0.41020826300358015 C 5.662281064957593 0.4426077880583956 5.662865772038639 0.4750955752491032 5.665827881070271 0.5074094396039707 C 5.667066768998727 0.5314035694076612 5.669879146747014 0.5552905180749462 5.674246880618341 0.5789162669342914 Z" fill="url(#gradient-8b277b0d-6f27-427a-9c9e-23680f790f1f_0)" transform="matrix(1,0,0,1,0,0)" fill-rule="nonzero"></path></g><g clip-path="url(#SvgjsClipPath133647aa9cc13-8718-423c-baf4-62b6760c174c)"><path d=" M 6.783914756115928 1.2287099593258723 L 6.723997720371254 1.2298033358905558 C 6.699885514293047 1.230113046645195 6.675779080181408 1.2288346751392742 6.651834867102125 1.2259765179141628 C 6.619368644648785 1.223818853937681 6.587123296433108 1.2191026975660018 6.555399054097017 1.2118719602297428 C 6.468773363581747 1.1943799834016229 6.3855008061192775 1.1631527743531986 6.308733301104352 1.1193723028574931 C 6.209024379273977 1.0619487194907187 6.121067415724315 0.9861966656870872 6.049493717617819 0.8961048083490611 C 5.965214739565151 0.7874265842968481 5.907448236989354 0.6605873680124649 5.880785713687107 0.5256688282341907 C 5.874881480237814 0.4894780639431563 5.869851948040269 0.4535059749650605 5.866899831315622 0.4145817692623168 C 5.8647584950774005 0.37688212533304943 5.865014131012356 0.3390845263787382 5.867665194910901 0.3014172948175442 C 5.872752200308486 0.22221146262700298 5.888795316652835 0.14409326079430673 5.915336413131114 0.06929345013517518 C 5.943107886426285 -0.008435245631570165 5.98136513199704 -0.0820068717291767 6.029047575858233 -0.14938186280158605 C 6.079418680452543 -0.21754900046987857 6.138990861346501 -0.2784090296228154 6.2060652416805375 -0.33022634660028677 C 6.275186526830412 -0.3819099498874861 6.351037794309832 -0.4239187507902489 6.431519489318337 -0.4550899502871759 C 6.513656752682621 -0.4844649906775215 6.59931845232258 -0.5028473296560532 6.686276228889663 -0.5097587785213661 C 6.773450467244218 -0.512851818372348 6.860644814127182 -0.5042096119119951 6.945515812376193 -0.4840644292512964 C 7.029047976151038 -0.4622833695686786 7.109207024029865 -0.4291749973378636 7.1837625658207935 -0.38566053842975445 C 7.256366414015426 -0.34158390294599006 7.322585427477906 -0.2877625603373216 7.3805703474638795 -0.2256995470165149 C 7.435278658957056 -0.16425335622167764 7.481435607661208 -0.09569833440132997 7.517789106331696 -0.021894155359454992 C 7.648448311673161 0.24566899657450703 7.633059374501448 0.5614928948304855 7.47700616046899 0.8150856049059928 C 7.416044981201651 0.9128666500815769 7.337093263130049 0.9981998040123506 7.244335627504281 1.066562214783267 C 7.172922414014018 1.1185620157592013 7.093730125716168 1.1589331077432887 7.009697016723138 1.1861776109596747 C 6.978898189368815 1.1967902417436038 6.947360253217786 1.205122396369831 6.915338619190926 1.2111065966344658 C 6.891864813761875 1.2165748841497925 6.868047592073461 1.2204470091482165 6.844050467173544 1.2226963882201138 Z M 6.783914756115928 1.2287099593258723 L 6.8436131165476635 1.221712349311896 C 6.867522580566085 1.219380718219924 6.891212223373589 1.2151765377834072 6.914463917939171 1.209138518818032 C 6.946243137987064 1.2026694090165884 6.977492107480488 1.1938246714523681 7.007947614219638 1.1826788059526838 C 7.199932926651436 1.1169331291022697 7.36126841125284 0.9832840424368025 7.461589550906943 0.8068852806708632 C 7.5257996759107755 0.6904243996801812 7.5621748436179494 0.5606788169221878 7.567865752994214 0.4278116256949902 C 7.57265081021852 0.28031096185384896 7.5385238392426634 0.13414948174067431 7.468915173890325 0.004018869223546773 C 7.393757305232345 -0.13246948839562006 7.283105406263456 -0.24610585305878935 7.14866517809444 -0.3248688014333362 C 7.0793971051764615 -0.36357674214228586 7.0052139384350065 -0.3927424591606172 6.928131124997719 -0.41157356301276193 C 6.771677905283266 -0.44705415538217236 6.60840821359427 -0.4379246900232284 6.4568858256190005 -0.38522318780388265 C 6.2331372713886575 -0.3046306779007969 6.054443031380014 -0.13234110677937122 5.9657410727630396 0.088318202360671 C 5.924935961531711 0.19214599784039932 5.904733641099478 0.302924530651699 5.90626138764424 0.41447243160584746 C 5.907354764208922 0.44891379339338744 5.910744231559444 0.48543257065382683 5.915008400161712 0.5199832700978347 C 5.935313835745397 0.6517475132093941 5.986038799496049 0.7769689181879355 6.0631609246763665 0.8857177309845657 C 6.1299459880174 0.9775378815503336 6.214961361909321 1.0545877169077214 6.312888132050142 1.1120466798741107 C 6.38830228514165 1.1569511729900968 6.4704967906120014 1.1893341834561806 6.556273755348757 1.2079358045968807 C 6.587686598580539 1.2158024560330265 6.619679026841897 1.221140621205779 6.651944204758589 1.2238991024412647 C 6.675767154867772 1.227314667139309 6.699825702594715 1.2288137559794374 6.723888382714781 1.228381946356468 C 6.7630312637304675 1.2287099593258723 6.783914756115928 1.2287099593258723 6.783914756115928 1.2287099593258723 Z" fill="url(#gradient-8b277b0d-6f27-427a-9c9e-23680f790f1f_1)" transform="matrix(1,0,0,1,0,0)" fill-rule="nonzero"></path></g><g clip-path="url(#SvgjsClipPath133647aa9cc13-8718-423c-baf4-62b6760c174c)"><path d=" M 6.961369772564109 1.0920378887403972 L 6.910418424649845 1.1241831597421008 C 6.890235416767162 1.1371831467402127 6.869069040568801 1.1485888624118683 6.847111921554652 1.1582965085602348 C 6.818278349522413 1.173328173552806 6.788298876138188 1.1860511695744025 6.757455043250582 1.1963460130112313 C 6.674268064324971 1.226435180100474 6.586760490153764 1.2428659271494977 6.498324797420519 1.2450012701396598 C 6.383346426773893 1.247774956168196 6.268886072534426 1.2287044141652506 6.161018127215564 1.1888017147149128 C 6.0325764834436235 1.139528499336918 5.917439096038306 1.060898088425969 5.8248048335753015 0.9591926361313144 C 5.800029613737711 0.9312835390920976 5.776744749208993 0.9020862167990366 5.755047408748472 0.8717225109566101 C 5.733581444161001 0.8407669315139502 5.7142214488469465 0.8084028638757405 5.697098450820234 0.7748493473256267 C 5.660226419332216 0.7044680376224876 5.633361590399865 0.629283317747431 5.617281961598318 0.5514725151607268 C 5.600922066725862 0.47074502089354875 5.595515870161085 0.3881809985267243 5.601209326097464 0.3060094763892137 C 5.609077512144056 0.22161549257714985 5.628464560644046 0.13869631360375778 5.658830271056299 0.059562398709484876 C 5.691065548547964 -0.020470782104277607 5.734186517607144 -0.09567492950782758 5.786974004437239 -0.1639237711118845 C 5.841774963536024 -0.23167794494528382 5.905390100156378 -0.2917997648148079 5.976128150127537 -0.3426908394376852 C 6.049022998696464 -0.39073398648926194 6.128104123652488 -0.4286561445495683 6.211204111534551 -0.45541796325658274 C 6.375639287872902 -0.5064222471240813 6.551426168950687 -0.508056943466284 6.716781435044338 -0.4601194824847236 C 6.795589522980501 -0.43589853988948685 6.870764618834723 -0.4011429305048293 6.940267604865707 -0.3567953971221047 C 7.190507168949032 -0.1957123238788709 7.341046439807963 0.08210480721859326 7.3393500509753 0.3797030568489025 C 7.337863418529428 0.49478246273480997 7.314563660887497 0.6085357381012931 7.270686002713154 0.7149323115809664 C 7.236745598874073 0.7965164984106444 7.189978296322845 0.8721488606264821 7.13215519196772 0.9389651696846651 C 7.111352173898963 0.9640652763084566 7.088691889285763 0.9875661843831139 7.064365844957321 1.0092692827938343 C 7.047313326388753 1.0261856795654847 7.029041218953465 1.0418266035300885 7.009697016723135 1.0560657997622998 Z M 6.961369772564109 1.0920378887403972 C 6.961369772564109 1.0920378887403972 6.97809843400377 1.0794640582465336 7.008931653127856 1.0555191114799585 C 7.027938876012172 1.0407655614089588 7.0459462485280016 1.0247671249750172 7.062835117766768 1.0076292179468078 C 7.0867674816583275 0.9857303694176313 7.108923307578118 0.9619658696686825 7.129093737586603 0.9365597412423606 C 7.258792510014575 0.7806103120114708 7.3273097123853566 0.5827926375547058 7.321856025940361 0.3800310698183068 C 7.316507578968416 0.24709704086122586 7.280270693578386 0.11723572328063503 7.216017174478965 0.0007387395294945476 C 7.143719661465831 -0.12794957027816467 7.038712472763107 -0.23525756304370093 6.9116211388709985 -0.31032689312304346 C 6.706762837059113 -0.4311171858979982 6.459943833938914 -0.45826727624122 6.233727668767044 -0.38489517483447905 C 6.158302642467715 -0.3590266890620776 6.086615905690623 -0.323330370389997 6.0205192386537085 -0.2787283104036821 C 5.887685006458596 -0.18924246506822423 5.784257610302561 -0.06249730729260111 5.72323015071618 0.08558476094896017 C 5.664863241114853 0.23006918051311664 5.6467268964107316 0.3876664591816569 5.670748075611358 0.541632126078572 C 5.682577149141327 0.6152351356725424 5.704659282167326 0.686818050231827 5.736350669492386 0.7542938679095731 C 5.75153707795891 0.7878530215143958 5.7690747358176315 0.8202976885530305 5.788832744597211 0.8513857068534963 C 5.80742014619683 0.8803601858176134 5.829397015146978 0.9098813530640754 5.850936533471248 0.9371064295247021 C 5.9368111923265054 1.0392700312604006 6.045398343755863 1.1199240740806902 6.16801573722955 1.1726197415575919 C 6.355220063026233 1.2507455438290274 6.564502445087413 1.257860289494492 6.7565803419988395 1.1926285326913049 C 6.787621758576359 1.1830592401375442 6.81779735836773 1.1708792707672089 6.846783908585253 1.1562190930873362 C 6.868940321889872 1.1469221149063662 6.890359130096339 1.1359568547324086 6.910855775275725 1.1234177961468212 C 6.943547734559763 1.1029716543872357 6.961369772564109 1.0920378887403972 6.961369772564109 1.0920378887403972 Z" fill="url(#gradient-8b277b0d-6f27-427a-9c9e-23680f790f1f_2)" transform="matrix(1,0,0,1,0,0)" fill-rule="nonzero"></path></g><g clip-path="url(#SvgjsClipPath133647aa9cc13-8718-423c-baf4-62b6760c174c)"><path d=" M 7.335523232998906 0.09586250065698854 C 7.335523232998906 0.09586250065698854 7.346456998645744 0.11368453866133421 7.366793802748862 0.14681384857125424 C 7.379718039166116 0.16717487907416095 7.391085076396413 0.1884835051361048 7.400797813910526 0.21055770229231974 C 7.415361398812369 0.23975906055712481 7.4277856593007225 0.2699792470979079 7.437972617109782 0.30097994419166774 C 7.467107456751759 0.38430036932621836 7.482721469871521 0.47174622530899846 7.484222445795903 0.5600008523652621 C 7.486049005961285 0.6751264928260335 7.465860432201163 0.7895407812496494 7.424742760677104 0.8970888472572748 C 7.374589326324899 1.0251088814593654 7.295169667576293 1.139613981154433 7.192837591307674 1.2314434007375814 C 7.164847151251764 1.2551696721912196 7.136528698226455 1.278021242393112 7.104492764881218 1.3002167866561924 C 7.073273673708703 1.3214259954820955 7.040652714673704 1.340494462017673 7.006854237654957 1.3572910433326877 C 6.936201362531006 1.393538897082598 6.860832177925445 1.4197414651681246 6.782930717207712 1.4351394547381742 C 6.702066112652709 1.4507577688743285 6.619468135998759 1.4554282688899365 6.537358340779735 1.4490253371096586 C 6.453049674652229 1.4404501852494755 6.370313461694189 1.4203639370168877 6.291457951382345 1.3893269766779217 C 6.211674459778953 1.3562514498375489 6.13677927812455 1.3124399756968832 6.068846482812721 1.259105827824082 C 5.930788432360407 1.1504441868687745 5.8301359496975325 1.0013577142576078 5.780960433331477 0.8326889675974006 C 5.757218863967562 0.7497513754178303 5.744823861829799 0.6639794318413578 5.744113643101635 0.5777135527131386 C 5.745048883647966 0.49299302523381805 5.757518639233484 0.40879458707672756 5.781179108644412 0.3274396570570288 C 5.8059887140425745 0.2488651511241492 5.8413350149986485 0.1740163244377665 5.886252596510534 0.10493752614386387 C 6.049393754747224 -0.14415166469866392 6.328745520738357 -0.2923277639119817 6.626468530801464 -0.28769399823408826 C 6.741539309045566 -0.28537473113750167 6.855104330905904 -0.26106587841903145 6.961041759594707 -0.2160778332472995 C 7.0423225917090875 -0.18146582827910596 7.117519663085237 -0.13402928595296432 7.1837625658208 -0.07557894468543153 C 7.208772905988658 -0.0546272646158959 7.232097249899 -0.03174162309885048 7.253519990647623 -0.00713357173622442 C 7.270213176114167 0.00996984883412233 7.285668778096238 0.028238881909858793 7.299769819333748 0.04753525649796575 Z M 7.335523232998906 0.09586250065698854 L 7.299004455738466 0.04819128243677506 C 7.284808348236873 0.028685859612654463 7.269008875895144 0.010399433291208182 7.2517705881441294 -0.006477545797413664 C 7.230198642440215 -0.030732805198851465 7.2066462734840115 -0.05315144210902972 7.181357137378493 -0.07350152921253145 C 7.026663064758244 -0.2046868442275962 6.829484208462661 -0.2750384566650128 6.626687206114402 -0.2714026874202997 C 6.49370354675393 -0.2669874572541907 6.363547152057457 -0.23184747605235528 6.246410836917371 -0.1687346279964897 C 6.11697597235716 -0.0976883569349783 6.008724988396038 0.006449919723336084 5.932721100509592 0.13303730385623858 C 5.853755079256393 0.2673249549423311 5.812680939679108 0.420512224350166 5.813871067928462 0.5762921631790506 C 5.815918013097855 0.6556312081069059 5.828642697207885 0.734333011561982 5.851701897066522 0.8102747480213869 C 5.877080454276797 0.8858751525531935 5.912141317724215 0.9578712023367243 5.956010021337359 1.024467217042941 C 6.001087985208827 1.0903591785671165 6.054691881013927 1.1499925935162767 6.115424324468252 1.201812895834653 C 6.2989053284512595 1.3531759041897935 6.538453775966176 1.4186556642698922 6.773418341094964 1.3816733407251371 C 6.847101685718728 1.3703642854531894 6.918856895421603 1.3488745200857628 6.986626771208306 1.317820149347603 C 7.020324640256513 1.3029635300441935 7.052917427449409 1.28571712247127 7.084155960778099 1.266212775494529 C 7.113239777398688 1.2478440492078402 7.142979619958089 1.2259765179141633 7.170314034075186 1.2047650125592981 C 7.273258663947846 1.119953778812484 7.354924981013559 1.0122261336047593 7.408779462832724 0.8902005748997687 C 7.488678134584763 0.703659333273731 7.497698661566761 0.49435977834225475 7.434145799133386 0.30163597013047994 C 7.4246876279650955 0.2706463699666213 7.412806057951632 0.24044890279394382 7.398611060781164 0.21132306588759975 C 7.389302516161715 0.18910179153251827 7.378337902282752 0.1676111483297541 7.365809763840648 0.14703252388419064 Z" fill="url(#gradient-8b277b0d-6f27-427a-9c9e-23680f790f1f_3)" transform="matrix(1,0,0,1,0,0)" fill-rule="nonzero"></path></g></g><g><path d=" M 0.5724 0.5795999999999999 Q 0.6312000000000001 0.5795999999999999 0.6492000000000001 0.6576 Q 0.6564000000000001 0.6863999999999999 0.6564000000000001 0.7175999999999999 Q 0.6564000000000001 0.7908 0.6192000000000001 0.8784 Q 0.5544 1.0295999999999998 0.42360000000000003 1.0908 Q 0.3516 1.1244 0.26880000000000004 1.1244 Q 0.0912 1.1244 0.026400000000000003 0.9947999999999999 Q -0.0036000000000000003 0.9348 -0.0036000000000000003 0.8664 Q -0.0036000000000000003 0.7979999999999999 0.0216 0.7235999999999999 Q 0.07680000000000001 0.5603999999999999 0.2184 0.4571999999999999 Q 0.30600000000000005 0.39479999999999993 0.4116 0.3707999999999999 Q 0.31560000000000005 0.33599999999999985 0.31560000000000005 0.2507999999999999 Q 0.31560000000000005 0.16559999999999986 0.40080000000000005 0.08939999999999992 Q 0.48600000000000004 0.013199999999999878 0.6156 0.013199999999999878 Q 0.6372000000000001 0.013199999999999878 0.648 0.029999999999999916 Q 0.6588 0.04679999999999984 0.6576000000000001 0.06359999999999988 L 0.6576000000000001 0.07919999999999983 Q 0.648 0.07439999999999991 0.6168 0.07439999999999991 Q 0.5076 0.07439999999999991 0.43320000000000003 0.1511999999999999 Q 0.3804 0.20519999999999983 0.3804 0.2579999999999999 Q 0.3804 0.3575999999999999 0.5304000000000001 0.3575999999999999 Q 0.5436000000000001 0.3575999999999999 0.5526000000000001 0.36539999999999995 Q 0.5616000000000001 0.37319999999999987 0.5676000000000001 0.3887999999999999 Q 0.36000000000000004 0.3887999999999999 0.21960000000000002 0.5483999999999999 Q 0.08760000000000001 0.6971999999999999 0.08760000000000001 0.8795999999999999 Q 0.08760000000000001 0.9827999999999999 0.1476 1.0392 Q 0.19440000000000002 1.0848 0.27 1.0848 Q 0.4404 1.0848 0.5316000000000001 0.9408 Q 0.5916 0.8472 0.5916 0.744 Q 0.5916 0.6312 0.5352 0.6107999999999999 Q 0.5256000000000001 0.6072 0.5148 0.6072 Q 0.5304000000000001 0.5795999999999999 0.5724 0.5795999999999999 M 0.6996000000000001 0.2843999999999999 Q 0.6996000000000001 0.2903999999999999 0.6888000000000001 0.2903999999999999 Q 0.678 0.2903999999999999 0.6678000000000001 0.28559999999999985 Q 0.6576000000000001 0.28079999999999994 0.6576000000000001 0.27239999999999986 Q 0.6576000000000001 0.1499999999999999 0.6852 0.07499999999999984 Q 0.7128000000000001 -1.1102230246251565e-16 0.7584000000000001 -1.1102230246251565e-16 Q 0.7704000000000001 -1.1102230246251565e-16 0.7788 0.008999999999999897 Q 0.7872000000000001 0.017999999999999905 0.7872000000000001 0.031199999999999894 Q 0.7320000000000001 0.08639999999999992 0.7092 0.19199999999999984 Q 0.6996000000000001 0.23639999999999983 0.6996000000000001 0.2843999999999999 M 0.8592228515625 0.942 Q 0.7584228515625 0.942 0.7584228515625 0.7871999999999999 Q 0.7584228515625 0.6971999999999999 0.8040228515625 0.5892 Q 0.8664228515625 0.43799999999999994 0.9684228515625 0.3839999999999999 Q 1.0128228515625 0.3599999999999999 1.0488228515625 0.3599999999999999 Q 1.0848228515625 0.3599999999999999 1.1040228515625001 0.37259999999999993 Q 1.1232228515625 0.3851999999999999 1.1292228515625 0.39839999999999987 L 1.1352228515625 0.41159999999999985 Q 1.1316228515625 0.43199999999999994 1.1136228515625 0.43199999999999994 Q 1.0956228515625002 0.43199999999999994 1.0878228515625001 0.4121999999999999 Q 1.0800228515625 0.39239999999999986 1.0512228515625 0.39239999999999986 Q 0.9732228515625 0.39239999999999986 0.9120228515625 0.5304 Q 0.8412228515625 0.6863999999999999 0.8412228515625 0.8255999999999999 Q 0.8412228515625 0.8987999999999999 0.8712228515625 0.8987999999999999 Q 0.8952228515625 0.8987999999999999 0.9414228515625 0.8393999999999999 Q 0.9876228515625001 0.7799999999999999 1.0368228515625 0.6947999999999999 Q 1.1040228515625001 0.5771999999999999 1.1556228515625 0.4799999999999999 Q 1.1988228515625 0.29279999999999984 1.2606228515625002 0.1529999999999999 Q 1.3224228515625 0.013199999999999878 1.3632228515625 0.013199999999999878 Q 1.3836228515625 0.013199999999999878 1.3836228515625 0.03359999999999985 Q 1.3548228515625 0.09599999999999986 1.3158228515625 0.20399999999999985 Q 1.2768228515625002 0.31199999999999994 1.2498228515625 0.40979999999999994 Q 1.2228228515625 0.5075999999999998 1.2006228515625001 0.6432 Q 1.1784228515625 0.7787999999999999 1.1784228515625 0.8987999999999999 Q 1.1784228515625 1.0776 1.2564228515625 1.0776 Q 1.2864228515625 1.0776 1.3122228515625 1.0518 Q 1.3380228515625001 1.026 1.3488228515625 1.0008 Q 1.3548228515625 0.9875999999999999 1.3704228515625 0.9935999999999999 Q 1.3764228515625 0.996 1.3752228515625 1.0008 Q 1.3680228515625 1.0164 1.3572228515625002 1.0368 Q 1.3464228515625 1.0572 1.3146228515625 1.0872 Q 1.2828228515625 1.1172 1.2504228515625 1.1172 Q 1.1076228515625 1.1172 1.1076228515625 0.8483999999999999 Q 1.1076228515625 0.7535999999999999 1.1244228515625 0.6456 L 1.1088228515625 0.6456 Q 0.9396228515625 0.942 0.8592228515625 0.942 M 1.762803955078125 1.032 Q 1.7772039550781251 1.032 1.789803955078125 1.0193999999999999 Q 1.802403955078125 1.0068 1.8132039550781252 0.9803999999999999 Q 1.814403955078125 0.9695999999999999 1.8276039550781251 0.9695999999999999 Q 1.840803955078125 0.9695999999999999 1.837803955078125 0.9803999999999999 Q 1.834803955078125 0.9912 1.828203955078125 1.0068 Q 1.8216039550781251 1.0224 1.800603955078125 1.0482 Q 1.779603955078125 1.0739999999999998 1.758003955078125 1.0739999999999998 Q 1.710003955078125 1.0739999999999998 1.683603955078125 1.014 Q 1.6560039550781251 0.954 1.6560039550781251 0.8657999999999999 Q 1.6560039550781251 0.7776 1.669203955078125 0.6839999999999999 L 1.658403955078125 0.6839999999999999 Q 1.513203955078125 0.9371999999999999 1.435203955078125 0.9371999999999999 Q 1.342803955078125 0.9371999999999999 1.342803955078125 0.7961999999999999 Q 1.342803955078125 0.6552 1.402803955078125 0.5147999999999999 Q 1.468803955078125 0.3599999999999999 1.5192039550781251 0.3599999999999999 Q 1.540803955078125 0.3599999999999999 1.540803955078125 0.38639999999999985 Q 1.490403955078125 0.5195999999999998 1.454403955078125 0.6456 Q 1.4184039550781251 0.7716 1.4184039550781251 0.8333999999999999 Q 1.4184039550781251 0.8952 1.447203955078125 0.8952 Q 1.467603955078125 0.8952 1.507803955078125 0.846 Q 1.548003955078125 0.7968 1.590003955078125 0.726 Q 1.6800039550781252 0.5735999999999999 1.727403955078125 0.4667999999999999 Q 1.774803955078125 0.3599999999999999 1.8252039550781252 0.3599999999999999 Q 1.8492039550781252 0.3599999999999999 1.8492039550781252 0.38639999999999985 Q 1.772403955078125 0.5388 1.740003955078125 0.75 Q 1.726803955078125 0.834 1.726803955078125 0.9144 Q 1.726803955078125 1.032 1.762803955078125 1.032 M 2.318445849609375 0.9012 Q 2.318445849609375 0.9852 2.372445849609375 0.9852 Q 2.422845849609375 0.9852 2.466645849609375 0.9024 Q 2.510445849609375 0.8195999999999999 2.510445849609375 0.6936 Q 2.510445849609375 0.6323999999999999 2.488245849609375 0.5207999999999999 Q 2.466045849609375 0.4091999999999999 2.466045849609375 0.3749999999999999 Q 2.466045849609375 0.3407999999999999 2.468445849609375 0.32999999999999985 Q 2.452845849609375 0.35519999999999985 2.378445849609375 0.4973999999999999 Q 2.304045849609375 0.6396 2.246445849609375 0.7223999999999999 Q 2.241645849609375 0.7272 2.233245849609375 0.7253999999999999 Q 2.224845849609375 0.7235999999999999 2.219445849609375 0.7182 Q 2.214045849609375 0.7127999999999999 2.214045849609375 0.7103999999999999 Q 2.214045849609375 0.708 2.215245849609375 0.7067999999999999 Q 2.271645849609375 0.6252 2.346645849609375 0.4817999999999999 Q 2.421645849609375 0.3383999999999999 2.472045849609375 0.26759999999999984 Q 2.522445849609375 0.19679999999999986 2.571645849609375 0.19679999999999986 Q 2.596845849609375 0.19679999999999986 2.596845849609375 0.21839999999999993 Q 2.596845849609375 0.2327999999999999 2.576445849609375 0.2567999999999999 Q 2.511645849609375 0.32999999999999985 2.511645849609375 0.40679999999999994 Q 2.511645849609375 0.4523999999999999 2.546445849609375 0.5825999999999999 Q 2.581245849609375 0.7127999999999999 2.581245849609375 0.7716 Q 2.581245849609375 0.8772 2.522445849609375 0.951 Q 2.463645849609375 1.0248 2.389245849609375 1.0248 Q 2.2836458496093752 1.0248 2.2836458496093752 0.9036 Q 2.2836458496093752 0.8123999999999999 2.339445849609375 0.7127999999999999 Q 2.395245849609375 0.6132 2.451645849609375 0.5783999999999999 Q 2.462445849609375 0.5711999999999999 2.465445849609375 0.5868 Q 2.468445849609375 0.6023999999999999 2.461245849609375 0.6072 Q 2.397645849609375 0.6432 2.350845849609375 0.7607999999999999 Q 2.318445849609375 0.8435999999999999 2.318445849609375 0.9012 M 2.914879833984375 0.8315999999999999 Q 2.914879833984375 0.9036 2.953279833984375 0.9036 Q 3.002479833984375 0.9036 3.061279833984375 0.7716 Q 3.129679833984375 0.6203999999999998 3.129679833984375 0.4883999999999999 Q 3.129679833984375 0.39839999999999987 3.082279833984375 0.39839999999999987 Q 3.034879833984375 0.39839999999999987 2.978479833984375 0.4715999999999999 Q 2.922079833984375 0.5448 2.878279833984375 0.6414 Q 2.834479833984375 0.738 2.803279833984375 0.8238 Q 2.772079833984375 0.9096 2.765479833984375 0.951 Q 2.758879833984375 0.9924 2.755279833984375 1.0133999999999999 Q 2.751679833984375 1.0344 2.743879833984375 1.08 Q 2.736079833984375 1.1256 2.729479833984375 1.1496 Q 2.722879833984375 1.1736 2.712079833984375 1.2102 Q 2.701279833984375 1.2468 2.689879833984375 1.2666 Q 2.678479833984375 1.2864 2.664079833984375 1.3068 Q 2.635279833984375 1.3464 2.590879833984375 1.3464 Q 2.533279833984375 1.3464 2.533279833984375 1.2804 Q 2.533279833984375 1.1628 2.713279833984375 0.8375999999999999 Q 2.731279833984375 0.7055999999999999 2.750479833984375 0.6239999999999999 Q 2.792479833984375 0.43079999999999985 2.839879833984375 0.3245999999999999 Q 2.887279833984375 0.21839999999999993 2.925679833984375 0.21839999999999993 Q 2.944879833984375 0.21839999999999993 2.944879833984375 0.24119999999999986 Q 2.887279833984375 0.39359999999999995 2.826079833984375 0.6275999999999999 L 2.818879833984375 0.6552 L 2.834479833984375 0.6552 Q 2.971279833984375 0.3575999999999999 3.092479833984375 0.3575999999999999 Q 3.205279833984375 0.3575999999999999 3.205279833984375 0.5364 Q 3.205279833984375 0.6659999999999999 3.139279833984375 0.7956 Q 3.066079833984375 0.942 2.964079833984375 0.942 Q 2.881279833984375 0.942 2.881279833984375 0.834 Q 2.881279833984375 0.7764 2.913079833984375 0.7013999999999999 Q 2.944879833984375 0.6263999999999998 2.996479833984375 0.5903999999999999 Q 3.007279833984375 0.5843999999999999 3.014479833984375 0.5952 Q 3.015679833984375 0.6012 3.013279833984375 0.6035999999999999 Q 2.967679833984375 0.6396 2.941279833984375 0.7091999999999999 Q 2.914879833984375 0.7787999999999999 2.914879833984375 0.8315999999999999 M 2.565679833984375 1.2696 Q 2.565679833984375 1.3056 2.592079833984375 1.3056 Q 2.646079833984375 1.3056 2.672479833984375 1.1592 Q 2.682079833984375 1.1088 2.706079833984375 0.9047999999999999 Q 2.596879833984375 1.1159999999999999 2.570479833984375 1.2324 Q 2.565679833984375 1.254 2.565679833984375 1.2696 M 3.389490380859375 0.7979999999999999 Q 3.354090380859375 0.8867999999999999 3.354090380859375 0.9029999999999999 Q 3.354090380859375 0.9191999999999999 3.337290380859375 0.9191999999999999 Q 3.301290380859375 0.9191999999999999 3.301290380859375 0.8231999999999999 Q 3.301290380859375 0.6323999999999999 3.339690380859375 0.43979999999999986 Q 3.378090380859375 0.24719999999999986 3.430890380859375 0.13139999999999985 Q 3.483690380859375 0.015599999999999836 3.529290380859375 0.015599999999999836 Q 3.548490380859375 0.015599999999999836 3.548490380859375 0.03479999999999983 Q 3.484890380859375 0.1751999999999999 3.442290380859375 0.35519999999999985 Q 3.399690380859375 0.5351999999999999 3.370890380859375 0.7392 L 3.379290380859375 0.7392 Q 3.531690380859375 0.3647999999999999 3.6780903808593752 0.3647999999999999 Q 3.739290380859375 0.3647999999999999 3.739290380859375 0.42359999999999987 Q 3.730890380859375 0.4511999999999999 3.717690380859375 0.4961999999999999 Q 3.704490380859375 0.5411999999999999 3.682890380859375 0.6576 Q 3.661290380859375 0.7739999999999999 3.661290380859375 0.8615999999999999 Q 3.661290380859375 0.9887999999999999 3.698490380859375 0.9887999999999999 Q 3.711690380859375 0.9887999999999999 3.724890380859375 0.9773999999999999 Q 3.738090380859375 0.966 3.742890380859375 0.966 Q 3.759690380859375 0.966 3.741690380859375 0.9924 Q 3.736890380859375 1.0008 3.720690380859375 1.0151999999999999 Q 3.704490380859375 1.0295999999999998 3.688890380859375 1.0295999999999998 Q 3.642090380859375 1.0295999999999998 3.616290380859375 0.9642 Q 3.590490380859375 0.8987999999999999 3.590490380859375 0.7944 Q 3.590490380859375 0.6179999999999999 3.643290380859375 0.43079999999999985 Q 3.6456903808593752 0.41279999999999994 3.628890380859375 0.4151999999999999 Q 3.620490380859375 0.4163999999999999 3.612090380859375 0.42479999999999996 Q 3.552090380859375 0.4787999999999999 3.488490380859375 0.5939999999999999 Q 3.424890380859375 0.7091999999999999 3.389490380859375 0.7979999999999999 M 4.12930107421875 0.3599999999999999 Q 4.22050107421875 0.3599999999999999 4.22050107421875 0.4667999999999999 Q 4.22050107421875 0.5279999999999999 4.17970107421875 0.5952 Q 4.1101010742187505 0.7067999999999999 3.99490107421875 0.7067999999999999 Q 3.97690107421875 0.7067999999999999 3.96490107421875 0.7007999999999999 Q 3.95290107421875 0.6947999999999999 3.94690107421875 0.6827999999999999 Q 4.03210107421875 0.6827999999999999 4.10290107421875 0.5843999999999999 Q 4.16050107421875 0.5051999999999999 4.16050107421875 0.4391999999999999 Q 4.16050107421875 0.3899999999999999 4.12090107421875 0.3899999999999999 Q 4.04170107421875 0.3899999999999999 3.97330107421875 0.5135999999999998 Q 3.90010107421875 0.6479999999999999 3.90010107421875 0.7896 Q 3.90010107421875 0.9096 3.96850107421875 0.9336 Q 3.98170107421875 0.9383999999999999 4.00210107421875 0.9383999999999999 Q 4.02250107421875 0.9383999999999999 4.04530107421875 0.9281999999999999 Q 4.06810107421875 0.9179999999999999 4.08370107421875 0.9036 Q 4.11490107421875 0.8747999999999999 4.13530107421875 0.84 Q 4.14010107421875 0.8303999999999999 4.15330107421875 0.8303999999999999 Q 4.1749010742187505 0.8303999999999999 4.17370107421875 0.8375999999999999 Q 4.17010107421875 0.8508 4.1467010742187504 0.8819999999999999 Q 4.12330107421875 0.9131999999999999 4.10350107421875 0.9318 Q 4.08370107421875 0.9503999999999999 4.05190107421875 0.9653999999999999 Q 4.02010107421875 0.9803999999999999 3.98770107421875 0.9803999999999999 Q 3.86050107421875 0.9803999999999999 3.82570107421875 0.8603999999999999 Q 3.81490107421875 0.8195999999999999 3.81490107421875 0.7764 Q 3.81490107421875 0.696 3.85210107421875 0.6012 Q 3.91090107421875 0.4571999999999999 4.01410107421875 0.39359999999999995 Q 4.07050107421875 0.3599999999999999 4.12930107421875 0.3599999999999999 M 4.664528466796875 0.5975999999999999 Q 4.618928466796875 0.5975999999999999 4.618928466796875 0.4979999999999999 Q 4.618928466796875 0.4415999999999999 4.640528466796875 0.39239999999999986 Q 4.558928466796875 0.4631999999999999 4.458128466796875 0.6557999999999999 Q 4.357328466796875 0.8483999999999999 4.357328466796875 0.9071999999999999 Q 4.357328466796875 0.9216 4.338128466796875 0.9216 Q 4.303328466796875 0.9216 4.303328466796875 0.8268 Q 4.303328466796875 0.6479999999999999 4.339328466796875 0.5027999999999999 Q 4.375328466796875 0.3575999999999999 4.426928466796875 0.3575999999999999 Q 4.449728466796875 0.3575999999999999 4.449728466796875 0.3839999999999999 Q 4.394528466796875 0.5591999999999999 4.370528466796875 0.7427999999999999 L 4.378928466796875 0.7427999999999999 Q 4.476128466796875 0.5184 4.593728466796875 0.39239999999999986 Q 4.660928466796875 0.3203999999999999 4.716128466796875 0.3203999999999999 Q 4.728128466796875 0.3203999999999999 4.735928466796875 0.3275999999999999 Q 4.743728466796875 0.3347999999999999 4.743728466796875 0.3455999999999999 Q 4.735328466796875 0.35399999999999987 4.723328466796875 0.3707999999999999 Q 4.711328466796875 0.38759999999999994 4.690928466796875 0.4505999999999999 Q 4.670528466796875 0.5135999999999998 4.670528466796875 0.5879999999999999 Q 4.670528466796875 0.5975999999999999 4.664528466796875 0.5975999999999999 M 5.055723193359375 0.3599999999999999 Q 5.146923193359375 0.3599999999999999 5.146923193359375 0.4667999999999999 Q 5.146923193359375 0.5279999999999999 5.106123193359375 0.5952 Q 5.0365231933593755 0.7067999999999999 4.921323193359375 0.7067999999999999 Q 4.903323193359375 0.7067999999999999 4.891323193359375 0.7007999999999999 Q 4.879323193359375 0.6947999999999999 4.873323193359375 0.6827999999999999 Q 4.958523193359375 0.6827999999999999 5.029323193359375 0.5843999999999999 Q 5.086923193359375 0.5051999999999999 5.086923193359375 0.4391999999999999 Q 5.086923193359375 0.3899999999999999 5.047323193359375 0.3899999999999999 Q 4.968123193359375 0.3899999999999999 4.899723193359375 0.5135999999999998 Q 4.826523193359375 0.6479999999999999 4.826523193359375 0.7896 Q 4.826523193359375 0.9096 4.894923193359375 0.9336 Q 4.908123193359375 0.9383999999999999 4.928523193359375 0.9383999999999999 Q 4.948923193359375 0.9383999999999999 4.971723193359375 0.9281999999999999 Q 4.994523193359375 0.9179999999999999 5.010123193359375 0.9036 Q 5.041323193359375 0.8747999999999999 5.061723193359375 0.84 Q 5.066523193359375 0.8303999999999999 5.079723193359375 0.8303999999999999 Q 5.1013231933593755 0.8303999999999999 5.100123193359375 0.8375999999999999 Q 5.096523193359375 0.8508 5.0731231933593754 0.8819999999999999 Q 5.049723193359375 0.9131999999999999 5.029923193359375 0.9318 Q 5.010123193359375 0.9503999999999999 4.978323193359375 0.9653999999999999 Q 4.946523193359375 0.9803999999999999 4.914123193359375 0.9803999999999999 Q 4.786923193359375 0.9803999999999999 4.752123193359375 0.8603999999999999 Q 4.741323193359375 0.8195999999999999 4.741323193359375 0.7764 Q 4.741323193359375 0.696 4.778523193359375 0.6012 Q 4.837323193359375 0.4571999999999999 4.940523193359375 0.39359999999999995 Q 4.996923193359375 0.3599999999999999 5.055723193359375 0.3599999999999999" fill="url(#gradient-1788b12a-3186-470e-ad03-799b2c20655d)" fill-rule="nonzero"></path></g><g></g></g><defs><clipPath id="SvgjsClipPath13366"><path d=" M 5.5993505859375 -0.5095401032084307 h 2.006017983225366 v 1.9610802064168613 h -2.006017983225366 Z"></path></clipPath><clipPath id="SvgjsClipPath133647aa9cc13-8718-423c-baf4-62b6760c174c"><path d=" M 5.5993505859375 -0.5095401032084307 L 7.605368569162866 -0.5095401032084307 L 7.605368569162866 1.4515401032084307 L 5.5993505859375 1.4515401032084307 Z"></path></clipPath><linearGradient id="gradient-8b277b0d-6f27-427a-9c9e-23680f790f1f_0" x1="0" x2="1" y1="0" y2="1"><stop stop-color="#ced0c4" offset="0"></stop><stop stop-color="#42423f" offset="1"></stop></linearGradient><linearGradient id="gradient-8b277b0d-6f27-427a-9c9e-23680f790f1f_1" x1="0" x2="1" y1="0" y2="1"><stop stop-color="#c9cbbf" offset="0"></stop><stop stop-color="#3d3d3b" offset="1"></stop></linearGradient><linearGradient id="gradient-8b277b0d-6f27-427a-9c9e-23680f790f1f_2" x1="0" x2="1" y1="0" y2="1"><stop stop-color="#d3d5c8" offset="0"></stop><stop stop-color="#474744" offset="1"></stop></linearGradient><linearGradient id="gradient-8b277b0d-6f27-427a-9c9e-23680f790f1f_3" x1="0" x2="1" y1="0" y2="1"><stop stop-color="#c5c7bb" offset="0"></stop><stop stop-color="#393937" offset="1"></stop></linearGradient><linearGradient id="gradient-1788b12a-3186-470e-ad03-799b2c20655d" y1="0" x1="0" y2="1" x2="1"><stop stop-color="#d4d6c9" offset="0"></stop><stop stop-color="#343432" offset="1"></stop></linearGradient></defs></svg>